<?xml version="1.0" standalone="no"?><!DOCTYPE svg PUBLIC "-//W3C//DTD SVG 1.1//EN" "http://www.w3.org/Graphics/SVG/1.1/DTD/svg11.dtd"><svg xmlns:xlink="http://www.w3.org/1999/xlink" version="1.1" style="font-family:'lucida grande', 'lucida sans unicode', arial, helvetica, sans-serif;font-size:12px;" xmlns="http://www.w3.org/2000/svg" width="600" height="400"><desc>Created with Highcharts 4.2.0</desc><defs><clipPath id="highcharts-9"><rect x="0" y="0" width="580" height="334"></rect></clipPath></defs><g class="highcharts-series-group" ><g class="highcharts-series highcharts-series-0"  transform="translate(10,10) scale(1 1)"><path fill="#50B432" d="M 289.9741335031307 39.000002634156175 A 127 127 0 0 1 353.63166737427207 275.9091029313314 L 290 166 A 0 0 0 0 0 290 166 Z" stroke="#FFFFFF" stroke-width="1" stroke-linejoin="round" transform="translate(0,0)"></path><path fill="#ED561B" d="M 353.5217264738279 275.9726796335535 A 127 127 0 0 1 226.6535023979807 276.0737082211613 L 290 166 A 0 0 0 0 0 290 166 Z" stroke="#FFFFFF" stroke-width="1" stroke-linejoin="round" transform="translate(0,0)"></path><path fill="#DDDF00" d="M 226.54346038135134 276.01030669726754 A 127 127 0 0 1 179.93919604602954 102.6310846470789 L 290 166 A 0 0 0 0 0 290 166 Z" stroke="#FFFFFF" stroke-width="1" stroke-linejoin="round" transform="translate(0,0)"></path><path fill="#24CBE5" d="M 180.00261998121834 102.52105554592345 A 127 127 0 0 1 257.05766014571736 43.34682130117889 L 290 166 A 0 0 0 0 0 290 166 Z" stroke="#FFFFFF" stroke-width="1" stroke-linejoin="round" transform="translate(0,0)"></path><path fill="#64E572" d="M 257.1803297751426 43.31394029339924 A 127 127 0 0 1 289.8235995478649 39.00012250840362 L 290 166 A 0 0 0 0 0 290 166 Z" stroke="#FFFFFF" stroke-width="1" stroke-linejoin="round" transform="translate(0,0)"></path></g><g class="highcharts-markers highcharts-series-0"  transform="translate(10,10) scale(1 1)"></g></g><g class="highcharts-data-labels highcharts-series-0"  visibility="visible" transform="translate(10,10) scale(1 1)" opacity="1"><path fill="none" d="M 446.65035472738373 125.36540991890428 C 441.65035472738373 125.36540991890428 433.9229481170712 127.43596227972444 423.29776402789145 130.28297177585216 L 412.6725799387117 133.1299812719799" stroke="#50B432" stroke-width="1"></path><path fill="none" d="M 285 323 C 290 323 289.99999999999994 315 289.99999999999994 304 L 289.99999999999994 293" stroke="#ED561B" stroke-width="1"></path><path fill="none" d="M 133.34964527261627 206.63459008109572 C 138.34964527261627 206.63459008109572 146.0770518829288 204.56403772027556 156.70223597210855 201.71702822414784 L 167.3274200612883 198.8700187280201" stroke="#DDDF00" stroke-width="1"></path><path fill="none" d="M 189.42445564563081 41.44352557427611 C 194.42445564563081 41.44352557427611 199.2945470777006 47.79035229660599 205.99092279679653 56.517239039809574 L 212.68729851589245 65.24412578301316" stroke="#24CBE5" stroke-width="1"></path><path fill="none" d="M 264.50738782145186 10.343156764311768 C 269.50738782145186 10.343156764311768 270.5515973592123 18.274715655302245 271.98738547363286 29.18060913041416 L 273.42317358805343 40.08650260552608" stroke="#64E572" stroke-width="1"></path><g  style="cursor:pointer;" transform="translate(452,115)"><text x="5"  style="font-size:10px;font-weight:bold;font-family:'arial', sans-serif;color:#000000;text-shadow:0 0 6px #ffffff, 0 0 3px #ffffff;fill:#000000;text-rendering:geometricprecision;" y="15"><tspan>५ तारा : 10 </tspan></text></g><g  style="cursor:pointer;" transform="translate(228,313)"><text x="5"  style="font-size:10px;font-weight:bold;font-family:'arial', sans-serif;color:#000000;text-shadow:0 0 6px #ffffff, 0 0 3px #ffffff;fill:#000000;text-rendering:geometricprecision;" y="15"><tspan>४ तारा : 4 </tspan></text></g><g  style="cursor:pointer;" transform="translate(77,197)"><text x="5"  style="font-size:10px;font-weight:bold;font-family:'arial', sans-serif;color:#000000;text-shadow:0 0 6px #ffffff, 0 0 3px #ffffff;fill:#000000;text-rendering:geometricprecision;" y="15"><tspan>३ तारा : 6 </tspan></text></g><g  style="cursor:pointer;" transform="translate(132,31)"><text x="5"  style="font-size:10px;font-weight:bold;font-family:'arial', sans-serif;color:#000000;text-shadow:0 0 6px #ffffff, 0 0 3px #ffffff;fill:#000000;text-rendering:geometricprecision;" y="15"><tspan>२ तारा : 3 </tspan></text></g><g  style="cursor:pointer;" transform="translate(209,0)"><text x="5"  style="font-size:10px;font-weight:bold;font-family:'arial', sans-serif;color:#000000;text-shadow:0 0 6px #ffffff, 0 0 3px #ffffff;fill:#000000;text-rendering:geometricprecision;" y="15"><tspan>१ तारा : 1 </tspan></text></g></g><g class="highcharts-legend"  transform="translate(125,356)"><g ><g><g class="highcharts-legend-item"  transform="translate(8,3)"><text x="21" style="color:#333;font-size:9pt;font-weight:normal;cursor:pointer;font-family:'lucida grande','lucida sans unicode',arial,helvetica,sans-serif;text-transform:none;fill:#333;" text-anchor="start"  y="15"><tspan>५ तारा</tspan></text><rect x="0" y="4" width="16" height="12"  fill="#50B432"></rect></g><g class="highcharts-legend-item"  transform="translate(79.765625,3)"><text x="21" y="15" style="color:#333;font-size:9pt;font-weight:normal;cursor:pointer;font-family:'lucida grande','lucida sans unicode',arial,helvetica,sans-serif;text-transform:none;fill:#333;" text-anchor="start" ><tspan>४ तारा</tspan></text><rect x="0" y="4" width="16" height="12"  fill="#ED561B"></rect></g><g class="highcharts-legend-item"  transform="translate(151.25,3)"><text x="21" y="15" style="color:#333;font-size:9pt;font-weight:normal;cursor:pointer;font-family:'lucida grande','lucida sans unicode',arial,helvetica,sans-serif;text-transform:none;fill:#333;" text-anchor="start" ><tspan>३ तारा</tspan></text><rect x="0" y="4" width="16" height="12"  fill="#DDDF00"></rect></g><g class="highcharts-legend-item"  transform="translate(221.984375,3)"><text x="21" y="15" style="color:#333;font-size:9pt;font-weight:normal;cursor:pointer;font-family:'lucida grande','lucida sans unicode',arial,helvetica,sans-serif;text-transform:none;fill:#333;" text-anchor="start" ><tspan>२ तारा</tspan></text><rect x="0" y="4" width="16" height="12"  fill="#24CBE5"></rect></g><g class="highcharts-legend-item"  transform="translate(292.984375,3)"><text x="21" y="15" style="color:#333;font-size:9pt;font-weight:normal;cursor:pointer;font-family:'lucida grande','lucida sans unicode',arial,helvetica,sans-serif;text-transform:none;fill:#333;" text-anchor="start" ><tspan>१ तारा</tspan></text><rect x="0" y="4" width="16" height="12"  fill="#64E572"></rect></g></g></g></g><g class="highcharts-tooltip"  style="cursor:default;padding:0;pointer-events:none;white-space:nowrap;" transform="translate(0,-9999)"><path fill="none" d="M 3.5 0.5 L 13.5 0.5 C 16.5 0.5 16.5 0.5 16.5 3.5 L 16.5 13.5 C 16.5 16.5 16.5 16.5 13.5 16.5 L 3.5 16.5 C 0.5 16.5 0.5 16.5 0.5 13.5 L 0.5 3.5 C 0.5 0.5 0.5 0.5 3.5 0.5"  stroke="black" stroke-opacity="0.049999999999999996" stroke-width="5" transform="translate(1, 1)"></path><path fill="none" d="M 3.5 0.5 L 13.5 0.5 C 16.5 0.5 16.5 0.5 16.5 3.5 L 16.5 13.5 C 16.5 16.5 16.5 16.5 13.5 16.5 L 3.5 16.5 C 0.5 16.5 0.5 16.5 0.5 13.5 L 0.5 3.5 C 0.5 0.5 0.5 0.5 3.5 0.5"  stroke="black" stroke-opacity="0.09999999999999999" stroke-width="3" transform="translate(1, 1)"></path><path fill="none" d="M 3.5 0.5 L 13.5 0.5 C 16.5 0.5 16.5 0.5 16.5 3.5 L 16.5 13.5 C 16.5 16.5 16.5 16.5 13.5 16.5 L 3.5 16.5 C 0.5 16.5 0.5 16.5 0.5 13.5 L 0.5 3.5 C 0.5 0.5 0.5 0.5 3.5 0.5"  stroke="black" stroke-opacity="0.15" stroke-width="1" transform="translate(1, 1)"></path><path fill="rgb(249, 249, 249)" fill-opacity=" .85" d="M 3.5 0.5 L 13.5 0.5 C 16.5 0.5 16.5 0.5 16.5 3.5 L 16.5 13.5 C 16.5 16.5 16.5 16.5 13.5 16.5 L 3.5 16.5 C 0.5 16.5 0.5 16.5 0.5 13.5 L 0.5 3.5 C 0.5 0.5 0.5 0.5 3.5 0.5"></path><text x="8"  style="font-size:12px;color:#000000;fill:#000000;" y="20"></text></g><text x="590" text-anchor="end"  style="cursor:pointer;color:#909090;font-size:9px;fill:#909090;" y="395">meta-chart.com</text></svg>